<svg width="27" height="18" viewBox="0 0 27 18" fill="none" xmlns="http://www.w3.org/2000/svg">
    <path fill-rule="evenodd" clip-rule="evenodd" d="M6.81246 12C3.46135 12 0.75 9.3 0.75 6C0.75 2.7 3.49182 0 6.84293 0C10.194 0 12.9359 2.7 12.9359 6C12.9359 12.63 7.48269 18 0.75 18C0.75 18 4.74087 16.53 6.81246 12ZM14.5641 6C14.5641 2.7 17.306 0 20.6571 0C24.0082 0 26.75 2.7 26.75 6C26.75 12.63 21.2968 18 14.5641 18C14.5641 18 18.555 16.53 20.6266 12C17.2755 12 14.5641 9.3 14.5641 6Z" fill="#FE7F2D"/>
</svg>
